<svg xmlns="http://www.w3.org/2000/svg" viewBox="0 0 28 30" width="112" height="120" shape-rendering="crispEdges" role="img" aria-label="repo-pet: sad, satiety 24, health 95"><style>.f{opacity:0;animation-duration:5s;animation-timing-function:step-end;animation-iteration-count:infinite}.f0{opacity:1;animation-name:k0}@keyframes k0{0%{opacity:1}63.64%{opacity:0}}.f1{animation-name:k1}@keyframes k1{0%{opacity:0}63.64%{opacity:1}}@media(prefers-reduced-motion:reduce){.f{animation:none}}</style><g class="f f0"><g fill="#255059"><rect x="8" y="2" width="4" height="1"/><rect x="16" y="2" width="4" height="1"/><rect x="7" y="3" width="1" height="1"/><rect x="12" y="3" width="1" height="1"/><rect x="15" y="3" width="1" height="1"/><rect x="20" y="3" width="1" height="1"/><rect x="6" y="4" width="1" height="1"/><rect x="13" y="4" width="2" height="1"/><rect x="21" y="4" width="1" height="1"/><rect x="6" y="5" width="1" height="1"/><rect x="13" y="5" width="2" height="1"/><rect x="21" y="5" width="1" height="1"/><rect x="6" y="6" width="1" height="1"/><rect x="13" y="6" width="2" height="1"/><rect x="21" y="6" width="1" height="1"/><rect x="6" y="7" width="1" height="1"/><rect x="13" y="7" width="2" height="1"/><rect x="21" y="7" width="1" height="1"/><rect x="7" y="8" width="1" height="1"/><rect x="12" y="8" width="1" height="1"/><rect x="15" y="8" width="1" height="1"/><rect x="20" y="8" width="1" height="1"/><rect x="8" y="9" width="4" height="1"/><rect x="16" y="9" width="4" height="1"/><rect x="9" y="10" width="1" height="1"/><rect x="18" y="10" width="1" height="1"/><rect x="7" y="11" width="1" height="1"/><rect x="20" y="11" width="1" height="1"/><rect x="6" y="12" width="1" height="1"/><rect x="21" y="12" width="1" height="1"/><rect x="5" y="13" width="1" height="1"/><rect x="22" y="13" width="1" height="1"/><rect x="5" y="14" width="1" height="1"/><rect x="22" y="14" width="1" height="1"/><rect x="5" y="15" width="1" height="1"/><rect x="22" y="15" width="1" height="1"/><rect x="5" y="16" width="1" height="1"/><rect x="22" y="16" width="1" height="1"/><rect x="5" y="17" width="1" height="1"/><rect x="22" y="17" width="1" height="1"/><rect x="5" y="18" width="1" height="1"/><rect x="22" y="18" width="1" height="1"/><rect x="6" y="19" width="1" height="1"/><rect x="21" y="19" width="1" height="1"/><rect x="7" y="20" width="14" height="1"/><rect x="9" y="21" width="1" height="1"/><rect x="13" y="21" width="2" height="1"/><rect x="18" y="21" width="1" height="1"/><rect x="9" y="22" width="10" height="1"/></g><g fill="#14232b"><rect x="8" y="3" width="4" height="1"/><rect x="16" y="3" width="4" height="1"/><rect x="7" y="4" width="6" height="1"/><rect x="15" y="4" width="6" height="1"/><rect x="9" y="6" width="3" height="1"/><rect x="16" y="6" width="3" height="1"/><rect x="9" y="7" width="3" height="1"/><rect x="16" y="7" width="3" height="1"/></g><g fill="#f4f7f4"><rect x="7" y="5" width="6" height="1"/><rect x="15" y="5" width="6" height="1"/><rect x="7" y="6" width="2" height="1"/><rect x="12" y="6" width="1" height="1"/><rect x="15" y="6" width="1" height="1"/><rect x="19" y="6" width="2" height="1"/><rect x="7" y="7" width="2" height="1"/><rect x="12" y="7" width="1" height="1"/><rect x="15" y="7" width="1" height="1"/><rect x="19" y="7" width="2" height="1"/><rect x="8" y="8" width="4" height="1"/><rect x="16" y="8" width="4" height="1"/></g><g fill="#80d5b4"><rect x="13" y="8" width="2" height="1"/><rect x="12" y="9" width="4" height="1"/><rect x="10" y="10" width="8" height="1"/><rect x="8" y="11" width="12" height="1"/><rect x="7" y="12" width="3" height="1"/><rect x="12" y="12" width="9" height="1"/><rect x="6" y="13" width="3" height="1"/><rect x="11" y="13" width="11" height="1"/><rect x="6" y="14" width="16" height="1"/><rect x="6" y="15" width="16" height="1"/><rect x="6" y="16" width="16" height="1"/><rect x="6" y="17" width="16" height="1"/><rect x="6" y="18" width="16" height="1"/><rect x="7" y="19" width="14" height="1"/><rect x="10" y="21" width="3" height="1"/><rect x="15" y="21" width="3" height="1"/></g><g fill="#abe5cd"><rect x="10" y="12" width="2" height="1"/><rect x="9" y="13" width="2" height="1"/></g></g><g class="f f1"><g fill="#255059"><rect x="8" y="3" width="4" height="1"/><rect x="16" y="3" width="4" height="1"/><rect x="7" y="4" width="1" height="1"/><rect x="12" y="4" width="1" height="1"/><rect x="15" y="4" width="1" height="1"/><rect x="20" y="4" width="1" height="1"/><rect x="6" y="5" width="1" height="1"/><rect x="13" y="5" width="2" height="1"/><rect x="21" y="5" width="1" height="1"/><rect x="6" y="6" width="1" height="1"/><rect x="13" y="6" width="2" height="1"/><rect x="21" y="6" width="1" height="1"/><rect x="6" y="7" width="1" height="1"/><rect x="13" y="7" width="2" height="1"/><rect x="21" y="7" width="1" height="1"/><rect x="6" y="8" width="1" height="1"/><rect x="13" y="8" width="2" height="1"/><rect x="21" y="8" width="1" height="1"/><rect x="7" y="9" width="1" height="1"/><rect x="12" y="9" width="1" height="1"/><rect x="15" y="9" width="1" height="1"/><rect x="20" y="9" width="1" height="1"/><rect x="8" y="10" width="4" height="1"/><rect x="16" y="10" width="4" height="1"/><rect x="9" y="11" width="1" height="1"/><rect x="18" y="11" width="1" height="1"/><rect x="7" y="12" width="1" height="1"/><rect x="20" y="12" width="1" height="1"/><rect x="5" y="13" width="1" height="1"/><rect x="22" y="13" width="1" height="1"/><rect x="5" y="14" width="1" height="1"/><rect x="22" y="14" width="1" height="1"/><rect x="5" y="15" width="1" height="1"/><rect x="22" y="15" width="1" height="1"/><rect x="5" y="16" width="1" height="1"/><rect x="22" y="16" width="1" height="1"/><rect x="5" y="17" width="1" height="1"/><rect x="22" y="17" width="1" height="1"/><rect x="5" y="18" width="1" height="1"/><rect x="22" y="18" width="1" height="1"/><rect x="6" y="19" width="1" height="1"/><rect x="21" y="19" width="1" height="1"/><rect x="7" y="20" width="14" height="1"/><rect x="9" y="21" width="1" height="1"/><rect x="13" y="21" width="2" height="1"/><rect x="18" y="21" width="1" height="1"/><rect x="9" y="22" width="10" height="1"/></g><g fill="#14232b"><rect x="8" y="4" width="4" height="1"/><rect x="16" y="4" width="4" height="1"/><rect x="7" y="5" width="6" height="1"/><rect x="15" y="5" width="6" height="1"/><rect x="9" y="7" width="3" height="1"/><rect x="16" y="7" width="3" height="1"/><rect x="9" y="8" width="3" height="1"/><rect x="16" y="8" width="3" height="1"/></g><g fill="#f4f7f4"><rect x="7" y="6" width="6" height="1"/><rect x="15" y="6" width="6" height="1"/><rect x="7" y="7" width="2" height="1"/><rect x="12" y="7" width="1" height="1"/><rect x="15" y="7" width="1" height="1"/><rect x="19" y="7" width="2" height="1"/><rect x="7" y="8" width="2" height="1"/><rect x="12" y="8" width="1" height="1"/><rect x="15" y="8" width="1" height="1"/><rect x="19" y="8" width="2" height="1"/><rect x="8" y="9" width="4" height="1"/><rect x="16" y="9" width="4" height="1"/></g><g fill="#80d5b4"><rect x="13" y="9" width="2" height="1"/><rect x="12" y="10" width="4" height="1"/><rect x="10" y="11" width="8" height="1"/><rect x="8" y="12" width="12" height="1"/><rect x="6" y="13" width="4" height="1"/><rect x="12" y="13" width="10" height="1"/><rect x="6" y="14" width="3" height="1"/><rect x="11" y="14" width="11" height="1"/><rect x="6" y="15" width="16" height="1"/><rect x="6" y="16" width="16" height="1"/><rect x="6" y="17" width="16" height="1"/><rect x="6" y="18" width="16" height="1"/><rect x="7" y="19" width="14" height="1"/><rect x="10" y="21" width="3" height="1"/><rect x="15" y="21" width="3" height="1"/></g><g fill="#abe5cd"><rect x="10" y="13" width="2" height="1"/><rect x="9" y="14" width="2" height="1"/></g></g><rect x="2" y="25" width="24" height="2" fill="#8b949e" fill-opacity="0.35"/><rect x="2" y="25" width="6" height="2" fill="#f2b13c"/><rect x="2" y="28" width="24" height="2" fill="#8b949e" fill-opacity="0.35"/><rect x="2" y="28" width="23" height="2" fill="#7ed6b4"/></svg>